<svg width="1220" height="580" viewBox="0 0 1220 580" fill="none" xmlns="http://www.w3.org/2000/svg">
<path d="M691.511 423.157V154.112H802.204C819.115 154.112 833.977 157.571 846.788 164.489C859.856 171.151 869.977 180.632 877.152 192.931C884.583 205.23 888.298 219.835 888.298 236.747V242.128C888.298 258.783 884.455 273.388 876.768 285.944C869.337 298.243 859.088 307.852 846.02 314.77C833.208 321.432 818.603 324.763 802.204 324.763H742.245V423.157H691.511ZM742.245 278.641H797.207C809.25 278.641 818.987 275.31 826.418 268.648C833.849 261.986 837.564 252.889 837.564 241.359V237.516C837.564 225.985 833.849 216.889 826.418 210.227C818.987 203.565 809.25 200.234 797.207 200.234H742.245V278.641Z" fill="white"/>
<path d="M478.692 423.157V154.112H651.65V200.234H529.427V264.42H640.888V310.542H529.427V377.035H653.956V423.157H478.692Z" fill="white"/>
<path d="M377.35 423.157V154.112H428.084V423.157H377.35Z" fill="white"/>
<path d="M113.68 423.157V378.572H149.04V198.696H113.68V154.112H224.373C260.502 154.112 287.919 163.336 306.624 181.785C325.585 199.978 335.066 227.138 335.066 263.267V314.001C335.066 350.13 325.585 377.419 306.624 395.868C287.919 414.06 260.502 423.157 224.373 423.157H113.68ZM199.775 377.035H225.142C245.64 377.035 260.63 371.654 270.111 360.892C279.591 350.13 284.332 335.013 284.332 315.539V261.73C284.332 242 279.591 226.882 270.111 216.376C260.63 205.615 245.64 200.234 225.142 200.234H199.775V377.035Z" fill="white"/>
<path d="M925.173 220.484C926.473 222.38 926.606 234.032 927.364 237.227C929.04 244.298 931.3 253.444 933.974 260.091C939.555 273.965 947.652 285.898 959.679 294.972C963.475 297.836 967.83 302.165 971.883 304.717C983.229 311.86 995.451 317.723 1007.91 322.659C1012.74 324.678 1017.28 327.14 1022.18 329.035C1049.34 339.529 1084.17 349.52 1095.63 379.41C1099.34 389.087 1098.18 401.838 1093.9 411.322C1086.6 427.503 1079.43 433.678 1063.06 439.668C1060.16 440.718 1057.24 441.752 1054.33 442.762C1027.7 451.89 993.01 445.166 968.135 433.017C937.724 418.231 914.411 392.06 903.283 360.211C895.492 337.35 897.777 302.504 903.832 279.301C905.35 273.481 909.974 262.377 912.084 255.786C915.659 244.617 920.073 230.789 925.173 220.484Z" fill="white"/>
<path d="M1007.61 62.4537C1008.33 63.4472 1009.36 66.0118 1009.98 67.2527C1012.52 72.3506 1014.55 77.8857 1016.97 82.996L1033.66 118.2C1034.97 120.906 1036.68 123.417 1037.97 126.116C1042.11 134.827 1045.72 144.285 1050.08 152.849C1047.51 152.396 1040.72 152.221 1037.62 152C1017.53 150.568 999.961 150.585 981.046 158.461C976.226 160.513 968.494 165.076 963.822 167.727C960.248 169.756 956.913 172.501 952.808 174.691C954.304 171.761 956.337 168.873 957.75 165.864C961.662 157.536 965.754 149.33 969.48 140.91C970.407 138.817 972.472 136.135 973.468 133.929C977.239 125.574 981.17 117.293 985.074 109.003C986.46 106.06 988.463 103.011 989.843 100.026C993.761 91.5478 997.719 83.2524 1001.51 74.7079C1003.53 70.1594 1005.68 67.8732 1007.61 62.4537Z" fill="white"/>
<path d="M1022.91 176.999C1041.96 174.764 1067.95 181.921 1082.53 194.672C1086.69 198.211 1091.75 201.871 1095.07 206.229C1120.96 240.175 1128.98 287.87 1123.42 329.462C1122.95 333.021 1121.45 346.467 1118.48 347.802C1117.03 347.017 1113.81 336.48 1112.26 333.678C1109.35 328.42 1107.01 325.456 1103.44 320.663C1095.94 310.67 1091.01 307.926 1081.12 301.117C1062.95 288.61 1043.25 280.879 1023.41 271.595C1012.87 266.665 1001.5 262.244 992.539 254.625C982.388 245.749 973.937 238.445 973.018 224.123C972.283 212.67 975.283 202.06 982.609 193.274C993.241 180.526 1007.12 178.277 1022.91 176.999Z" fill="white"/>
<circle cx="401.081" cy="107.963" r="21.9119" fill="white"/>
</svg>
