<svg width="100%" height="100%" viewBox="0 0 860 400" xmlns="http://www.w3.org/2000/svg">
  <defs>
    <radialGradient id="glow" cx="50%" cy="50%" r="50%">
      <stop offset="0%" stop-color="#9D6BFF" stop-opacity="0.15"/>
      <stop offset="100%" stop-color="#050505" stop-opacity="0"/>
    </radialGradient>
  </defs>
  <style>
    .rect-bg { fill: #050505; rx: 20; stroke: #222; stroke-width: 1; }
    .node { fill: #0a0a0a; stroke: #333; stroke-width: 2; rx: 12; }
    .node-active { fill: #111; stroke: #9D6BFF; stroke-width: 2; rx: 12; }
    .node-safe { fill: #111; stroke: #00FF66; stroke-width: 2; rx: 12; }
    .text { fill: #FFF; font-family: ui-monospace, SFMono-Regular, Menlo, Monaco, monospace; font-size: 14px; text-anchor: middle; font-weight: bold; }
    .text-sub { fill: #888; font-family: ui-sans-serif, system-ui, sans-serif; font-size: 10px; text-transform: uppercase; text-anchor: middle; letter-spacing: 1px; }
    .line { fill: none; stroke: #333; stroke-width: 2; stroke-dasharray: 4 4; }
    .flow-path { fill: none; stroke: #9D6BFF; stroke-width: 3; stroke-dasharray: 12 12; animation: dash 2s linear infinite; }
    .flow-path-fast { fill: none; stroke: #00FF66; stroke-width: 3; stroke-dasharray: 12 12; animation: dash 1s linear infinite; }
    @keyframes dash { to { stroke-dashoffset: -48; } }
    @keyframes pulseBorder { 0% { stroke: #333; } 50% { stroke: #9D6BFF; } 100% { stroke: #333; } }
    @keyframes pulseSafe { 0% { stroke: #333; } 50% { stroke: #00FF66; } 100% { stroke: #333; } }
    .pulse-anim { animation: pulseBorder 2s infinite; }
    .pulse-safe-anim { animation: pulseSafe 2.5s infinite; }
  </style>
  
  <!-- Background -->
  <rect width="100%" height="100%" class="rect-bg" />
  <circle cx="430" cy="200" r="350" fill="url(#glow)" />
  
  <!-- Connectors Paths -->
  <path class="line" d="M 140 200 L 210 200" />
  <path class="line" d="M 350 200 C 370 200, 370 100, 390 100" />
  <path class="line" d="M 350 200 C 370 200, 370 300, 390 300" />
  <path class="line" d="M 510 100 C 530 100, 530 200, 550 200" />
  <path class="line" d="M 510 300 C 530 300, 530 200, 550 200" />
  <path class="line" d="M 690 200 L 750 200" />
  
  <!-- Animated Connectors -->
  <path class="flow-path" d="M 140 200 L 210 200" />
  <path class="flow-path-fast" d="M 350 200 C 370 200, 370 100, 390 100" />
  <path class="flow-path-fast" d="M 350 200 C 370 200, 370 300, 390 300" />
  <path class="flow-path-fast" d="M 510 100 C 530 100, 530 200, 550 200" />
  <path class="flow-path-fast" d="M 510 300 C 530 300, 530 200, 550 200" />
  <path class="flow-path" d="M 690 200 L 750 200" />
  
  <!-- Traveling Particles -->
  <circle r="4" fill="#FFF"><animateMotion dur="2s" repeatCount="indefinite" path="M 140 200 L 210 200" /></circle>
  <circle r="4" fill="#00FF66"><animateMotion dur="1.5s" repeatCount="indefinite" path="M 350 200 C 370 200, 370 100, 390 100" /></circle>
  <circle r="4" fill="#00FF66"><animateMotion dur="1.8s" repeatCount="indefinite" path="M 350 200 C 370 200, 370 300, 390 300" /></circle>
  <circle r="4" fill="#00FF66"><animateMotion dur="1.5s" repeatCount="indefinite" path="M 510 100 C 530 100, 530 200, 550 200" /></circle>
  <circle r="4" fill="#00FF66"><animateMotion dur="1.8s" repeatCount="indefinite" path="M 510 300 C 530 300, 530 200, 550 200" /></circle>
  <circle r="4" fill="#9D6BFF"><animateMotion dur="2s" repeatCount="indefinite" path="M 690 200 L 750 200" /></circle>

  <!-- Nodes -->
  <g transform="translate(40, 160)">
    <rect class="node" width="100" height="80" />
    <text class="text" x="50" y="35">User Intent</text>
    <text class="text-sub" x="50" y="55">Natural Lang</text>
  </g>
  
  <g transform="translate(210, 160)">
    <rect class="node-active pulse-anim" width="140" height="80" />
    <text class="text" x="70" y="35">Solver Engine</text>
    <text class="text-sub" x="70" y="55">Pattern Extract</text>
  </g>
  
  <g transform="translate(390, 60)">
    <rect class="node-active" width="120" height="80" />
    <text class="text" x="60" y="35">Graph State</text>
    <text class="text-sub" x="60" y="55">RPC Polling</text>
  </g>
  
  <g transform="translate(390, 260)">
    <rect class="node-safe pulse-safe-anim" width="120" height="80" />
    <text class="text" x="60" y="35">Routing Engine</text>
    <text class="text-sub" x="60" y="55">MMBF Algo</text>
  </g>
  
  <g transform="translate(550, 160)">
    <rect class="node-active" width="140" height="80" style="stroke: #FF3366;" />
    <text class="text" x="70" y="35">Risk Guardian</text>
    <text class="text-sub" x="70" y="55">Bayesian Filter</text>
  </g>
  
  <g transform="translate(750, 160)">
    <rect class="node-safe" width="80" height="80" />
    <text class="text" x="40" y="35">PTB</text>
    <text class="text-sub" x="40" y="55">Execute</text>
  </g>
</svg>
