<?xml version="1.0" encoding="UTF-8"?>
<svg id="Layer_1" data-name="Layer 1" xmlns="http://www.w3.org/2000/svg" viewBox="0 0 2822.08 2686.08">
  <defs>
    <style>
      .cls-1, .cls-2 {
        fill: none;
      }

      .cls-3 {
        fill: #6a33cf;
      }

      .cls-4 {
        fill: #fff;
      }

      .cls-4, .cls-5 {
        opacity: .35;
      }

      .cls-5 {
        fill: #43138e;
      }

      .cls-6 {
        fill: #9849fa;
      }

      .cls-2 {
        stroke: #060256;
        stroke-linecap: round;
        stroke-linejoin: round;
        stroke-width: 65px;
      }
    </style>
  </defs>
  <path class="cls-3" d="M2391.5,1723.43l-108.04,49.72c-98.62,45.38-155.04,150.82-138.08,258.06l18.58,117.46c9.02,57.06-2.15,110.57-27.06,155.25-13.1-2.52-26.27-6.17-39.41-11.03l-111.54-41.24c-101.83-37.65-216.28-2.99-280.12,84.84l-18.11,24.92c-90.2-16.23-183.56,19.95-238.89,96.08l-51.8,71.26-18.12,24.93c-108.91,149.84-338.82,127.09-416.26-41.18l-49.72-108.04c-45.38-98.62-150.82-155.04-258.06-138.08l-117.46,18.58c-182.96,28.93-329.45-149.72-265.22-323.47l41.24-111.54c37.65-101.83,2.99-216.28-84.84-280.12l-96.19-69.92c-149.84-108.91-127.09-338.82,41.18-416.26l108.04-49.72c98.62-45.38,155.04-150.82,138.08-258.06l-18.58-117.46c-26.74-169.12,187.89-354.09,348.06-323.25,13.1,2.52,26.27,6.17,39.41,11.03l47.54,88.24c101.83,37.65,216.28,2.99,280.12-84.84l18.11-24.92c90.2,16.23,183.56-19.95,238.89-96.08l51.8-71.26c73.66,13.09,141.71,59.73,177.38,137.25l49.72,108.04c45.38,98.62,150.82,155.04,258.06,138.08l117.46-18.58c182.96-28.93,329.45,149.72,265.22,323.47l-41.24,111.54c-37.65,101.83-2.99,216.28,84.84,280.12l96.19,69.92c149.84,108.91,127.09,338.82-41.18,416.26Z"/>
  <path class="cls-2" d="M2391.5,1723.43l-108.04,49.72c-98.62,45.38-155.04,150.82-138.08,258.06l18.58,117.46c9.02,57.06-2.15,110.57-27.06,155.25-13.1-2.52-26.27-6.17-39.41-11.03l-111.54-41.24c-101.83-37.65-216.28-2.99-280.12,84.84l-18.11,24.92c-90.2-16.23-183.56,19.95-238.89,96.08l-51.8,71.26-18.12,24.93c-108.91,149.84-338.82,127.09-416.26-41.18l-49.72-108.04c-45.38-98.62-150.82-155.04-258.06-138.08l-117.46,18.58c-182.96,28.93-329.45-149.72-265.22-323.47l41.24-111.54c37.65-101.83,2.99-216.28-84.84-280.12l-96.19-69.92c-149.84-108.91-127.09-338.82,41.18-416.26l108.04-49.72c98.62-45.38,155.04-150.82,138.08-258.06l-18.58-117.46c-26.74-169.12,187.89-354.09,348.06-323.25,13.1,2.52,26.27,6.17,39.41,11.03l47.54,88.24c101.83,37.65,216.28,2.99,280.12-84.84l18.11-24.92c90.2,16.23,183.56-19.95,238.89-96.08l51.8-71.26c73.66,13.09,141.71,59.73,177.38,137.25l49.72,108.04c45.38,98.62,150.82,155.04,258.06,138.08l117.46-18.58c182.96-28.93,329.45,149.72,265.22,323.47l-41.24,111.54c-37.65,101.83-2.99,216.28,84.84,280.12l96.19,69.92c149.84,108.91,127.09,338.82-41.18,416.26Z"/>
  <path class="cls-6" d="M2648.5,1602.43l-108.04,49.72c-98.62,45.38-155.04,150.82-138.08,258.06l18.58,117.46c26.74,169.12-123.89,307.09-284.06,276.25-13.1-2.52-26.27-6.17-39.41-11.03l-111.54-41.24c-101.83-37.65-216.28-2.99-280.12,84.84l-18.11,24.92-51.81,71.27c-58.73,80.81-152.66,111.42-238.88,96.07-73.66-13.09-141.71-59.73-177.38-137.25l-49.72-108.04c-45.38-98.62-150.82-155.04-258.06-138.08l-117.46,18.58c-182.96,28.93-329.45-149.72-265.22-323.47l41.24-111.54c37.65-101.83,2.99-216.28-84.84-280.12l-96.19-69.92c-149.84-108.91-127.09-338.82,41.18-416.26l108.04-49.72c98.62-45.38,155.04-150.82,138.08-258.06l-18.58-117.46c-9.02-57.06,2.15-110.57,27.06-155.25,54.96-98.59,176.85-154.17,296.41-109.97l111.54,41.24c13.57,5.01,27.36,8.75,41.23,11.24,90.2,16.23,183.56-19.95,238.89-96.08l51.8-71.26,18.12-24.93c108.91-149.84,338.82-127.09,416.26,41.18l49.72,108.04c45.38,98.62,150.82,155.04,258.06,138.08l117.46-18.58c182.96-28.93,329.45,149.72,265.22,323.47l-41.24,111.54c-37.65,101.83-2.99,216.28,84.84,280.12l96.19,69.92c149.84,108.91,127.09,338.82-41.18,416.26Z"/>
  <path class="cls-5" d="M2648.5,1602.43l-108.04,49.72c-98.62,45.38-155.04,150.82-138.08,258.06l18.58,117.46c26.74,169.12-123.89,307.09-284.06,276.25-13.1-2.52-26.27-6.17-39.41-11.03l-111.54-41.24c-6.3-2.33-12.64-4.38-19.02-6.16,57.48-51.77,90.81-130.66,77.03-217.82l-18.58-117.46c-16.96-107.24,39.46-212.68,138.08-258.06l108.04-49.72c168.27-77.44,191.02-307.35,41.18-416.26l-96.19-69.92c-87.83-63.84-122.49-178.29-84.84-280.12l41.24-111.54c47.74-129.13-20.92-260.97-134.44-308.29l4.81-9.43c38.56,14.67,81.11,19.61,123.95,12.83l117.46-18.58c182.96-28.93,329.45,149.72,265.22,323.47l-41.24,111.54c-37.65,101.83-2.99,216.28,84.84,280.12l96.19,69.92c149.84,108.91,127.09,338.82-41.18,416.26Z"/>
  <path class="cls-4" d="M947.56,278.9c-63.7,17.04-118.39,59.86-150.38,117.26-24.91,44.68-36.08,98.19-27.06,155.25l18.58,117.46c16.96,107.24-39.46,212.68-138.08,258.06l-108.04,49.72c-168.27,77.44-191.02,307.35-41.18,416.26l96.19,69.92c87.83,63.84,122.49,178.29,84.84,280.12l-41.24,111.54c-52.27,141.39,35.01,286.03,167.92,319.41l-25.7,4.06c-182.96,28.93-329.45-149.72-265.22-323.47l41.24-111.54c37.65-101.83,2.99-216.28-84.84-280.12l-96.19-69.92c-149.84-108.91-127.09-338.82,41.18-416.26l108.04-49.72c98.62-45.38,155.04-150.82,138.08-258.06l-18.58-117.46c-9.02-57.06,2.15-110.57,27.06-155.25,51.43-92.26,161.48-146.86,273.38-117.26Z"/>
  <path class="cls-2" d="M2648.5,1602.43l-108.04,49.72c-98.62,45.38-155.04,150.82-138.08,258.06l18.58,117.46c26.74,169.12-123.89,307.09-284.06,276.25-13.1-2.52-26.27-6.17-39.41-11.03l-111.54-41.24c-101.83-37.65-216.28-2.99-280.12,84.84l-18.11,24.92-51.81,71.27c-58.73,80.81-152.66,111.42-238.88,96.07-73.66-13.09-141.71-59.73-177.38-137.25l-49.72-108.04c-45.38-98.62-150.82-155.04-258.06-138.08l-117.46,18.58c-182.96,28.93-329.45-149.72-265.22-323.47l41.24-111.54c37.65-101.83,2.99-216.28-84.84-280.12l-96.19-69.92c-149.84-108.91-127.09-338.82,41.18-416.26l108.04-49.72c98.62-45.38,155.04-150.82,138.08-258.06l-18.58-117.46c-9.02-57.06,2.15-110.57,27.06-155.25,54.96-98.59,176.85-154.17,296.41-109.97l111.54,41.24c13.57,5.01,27.36,8.75,41.23,11.24,90.2,16.23,183.56-19.95,238.89-96.08l51.8-71.26,18.12-24.93c108.91-149.84,338.82-127.09,416.26,41.18l49.72,108.04c45.38,98.62,150.82,155.04,258.06,138.08l117.46-18.58c182.96-28.93,329.45,149.72,265.22,323.47l-41.24,111.54c-37.65,101.83-2.99,216.28,84.84,280.12l96.19,69.92c149.84,108.91,127.09,338.82-41.18,416.26Z"/>
  <path class="cls-3" d="M1960.54,1282.54c0,252.95-205.05,458-458,458-48.09,0-94.46-7.41-138-21.16,185.51-58.54,320-231.98,320-436.84s-134.49-378.3-320-436.84c43.54-13.75,89.91-21.16,138-21.16,252.95,0,458,205.05,458,458Z"/>
  <path class="cls-2" d="M1960.54,1282.54c0,252.95-205.05,458-458,458-48.09,0-94.46-7.41-138-21.16,185.51-58.54,320-231.98,320-436.84s-134.49-378.3-320-436.84c43.54-13.75,89.91-21.16,138-21.16,252.95,0,458,205.05,458,458Z"/>
  <circle class="cls-2" cx="1502.54" cy="1282.54" r="458"/>
  <path class="cls-5" d="M2138.54,1330.54c0,307.62-249.38,557-557,557-153.98,0-293.37-62.48-394.2-163.48,90.39,63.32,200.46,100.48,319.2,100.48,307.62,0,557-249.38,557-557,0-153.64-62.21-292.75-162.8-393.52,143.79,100.72,237.8,267.64,237.8,456.52Z"/>
  <line class="cls-1" x1="2043.26" y1="406.87" x2="2038.45" y2="416.3"/>
</svg>